<svg xmlns="http://www.w3.org/2000/svg" xmlns:xlink="http://www.w3.org/1999/xlink" id="tagsvg" x="0" y="0" version="1.1" viewBox="0 0 15 15" xml:space="preserve" style="enable-background:new 0 0 15 15"><style type="text/css">.st0{fill:#898989}</style><g><g><path d="M4.2,1.1c-0.8,0-1.5,0-2.3,0c-0.6,0-0.8,0.2-0.8,0.8c0,1.6,0,3.1,0,4.6c0,0.5,0.2,0.9,0.5,1.3 c1.9,1.9,3.8,3.8,5.8,5.8c0.4,0.4,0.8,0.4,1.2,0c1.7-1.7,3.3-3.3,4.9-4.9c0.4-0.4,0.4-0.8,0-1.2c-1.8-1.9-3.7-3.8-5.6-5.7 C7.5,1.3,7,1.1,6.4,1.1C5.7,1.1,5,1.1,4.2,1.1z M4.2,2.9c0.7,0,1.3,0.6,1.3,1.2c0,0.7-0.6,1.3-1.2,1.3C3.6,5.5,3,4.9,2.9,4.2 C2.9,3.5,3.5,2.9,4.2,2.9z" class="st0"/></g></g></svg>